<?xml version="1.0" encoding="UTF-8" standalone="no"?>
<!-- Created with Inkscape (http://www.inkscape.org/) -->

<svg
   width="210mm"
   height="297mm"
   viewBox="0 0 210 297"
   version="1.1"
   id="svg1"
   xml:space="preserve"
   inkscape:version="1.4 (e7c3feb100, 2024-10-09)"
   sodipodi:docname="muscle.svg"
   xmlns:inkscape="http://www.inkscape.org/namespaces/inkscape"
   xmlns:sodipodi="http://sodipodi.sourceforge.net/DTD/sodipodi-0.dtd"
   xmlns:xlink="http://www.w3.org/1999/xlink"
   xmlns="http://www.w3.org/2000/svg"
   xmlns:svg="http://www.w3.org/2000/svg"><sodipodi:namedview
     id="namedview1"
     pagecolor="#ffffff"
     bordercolor="#000000"
     borderopacity="0.25"
     inkscape:showpageshadow="2"
     inkscape:pageopacity="0.0"
     inkscape:pagecheckerboard="0"
     inkscape:deskcolor="#d1d1d1"
     inkscape:document-units="mm"
     showgrid="false"
     showguides="false"
     inkscape:zoom="2.8507295"
     inkscape:cx="356.92618"
     inkscape:cy="210.47244"
     inkscape:window-width="1920"
     inkscape:window-height="1011"
     inkscape:window-x="0"
     inkscape:window-y="0"
     inkscape:window-maximized="1"
     inkscape:current-layer="layer1" /><defs
     id="defs1"><linearGradient
       id="linearGradient284139"><stop
         style="stop-color:#cecece;stop-opacity:0.99849516;"
         offset="0.50685495"
         id="stop284142" /><stop
         style="stop-color:#efefef;stop-opacity:0;"
         offset="1"
         id="stop284143" /></linearGradient><linearGradient
       id="linearGradient284139-1"><stop
         style="stop-color:#e2e2e2;stop-opacity:0.99849516;"
         offset="0.32392782"
         id="stop284140" /><stop
         style="stop-color:#ffffff;stop-opacity:0;"
         offset="1"
         id="stop284141" /></linearGradient><linearGradient
       inkscape:collect="always"
       xlink:href="#linearGradient284139-1"
       id="linearGradient284141"
       x1="103.69279"
       y1="201.01962"
       x2="103.69279"
       y2="190.25659"
       gradientUnits="userSpaceOnUse" /></defs><g
     inkscape:label="Ebene 1"
     inkscape:groupmode="layer"
     id="layer1"><g
       id="g284143"
       inkscape:label="muscle"><path
         style="display:inline;fill:#f99775;fill-opacity:1;fill-rule:evenodd;stroke:#f99775;stroke-width:0.238125;stroke-linejoin:round;stroke-dasharray:none;stroke-opacity:1"
         d="m 106.84295,36.751873 c 0,0 18.10379,26.551487 15.48829,66.678397 -2.6155,40.12691 -14.30698,87.67948 -14.30698,87.67948 l -8.269177,-0.26252 c 0,0 -5.718367,-9.4951 -7.612883,-76.65391 -1.894516,-67.158809 14.70075,-77.441447 14.70075,-77.441447 z"
         id="path284131"
         inkscape:label="muscle_mid"
         sodipodi:nodetypes="czcczc"
         sodipodi:insensitive="true" /><path
         style="fill:#fcb097;fill-opacity:1;fill-rule:evenodd;stroke:#fcb097;stroke-width:0.238125;stroke-linejoin:round;stroke-dasharray:none;stroke-opacity:1"
         d="m 107.36798,54.602784 c 5.92197,24.817595 3.91985,64.934886 3.67518,93.060996 3.29926,-14.00729 3.38563,-45.81713 4.59398,-46.20235 0.81458,0.40232 1.44775,12.73563 0.39378,28.61396 2.35871,-19.82349 4.24911,-37.623712 -4.06896,-73.766268 4.02006,25.679348 5.42647,37.492681 3.41268,37.014389 -0.56997,0.703019 -3.16559,-20.486126 -8.00666,-38.720727 z"
         id="path284135"
         sodipodi:nodetypes="ccccccc"
         inkscape:label="muscle_light3"
         sodipodi:insensitive="true" /><path
         style="fill:#fcb097;fill-opacity:1;fill-rule:evenodd;stroke:#fcb097;stroke-width:0.238125;stroke-linejoin:round;stroke-dasharray:none;stroke-opacity:1"
         d="m 105.92415,136.11319 c 5.94128,-27.99615 5.64015,-71.526632 -2.23136,-79.016528 5.51667,5.898287 3.64046,54.509998 2.23136,79.016528 z"
         id="path284134"
         sodipodi:nodetypes="ccc"
         inkscape:label="muscle_light2"
         sodipodi:insensitive="true" /><path
         style="display:inline;fill:#fcb097;fill-opacity:1;fill-rule:evenodd;stroke:#fcb097;stroke-width:0.238125;stroke-linejoin:round;stroke-dasharray:none;stroke-opacity:1"
         d="m 101.33017,196.62253 c 0.5871,-39.4141 -0.48021,-87.51181 0.65628,-88.46701 1.00523,0.75113 1.52453,11.39725 2.10011,21.52609 0.96934,-15.99124 0.61668,-31.048366 0.65628,-41.214599 0.0396,-10.166233 -0.38681,-19.534252 -2.36262,-43.577221 -7.751109,29.378507 -5.242399,65.34292 -5.11901,71.92867 0.123389,6.58575 -2.424693,45.32065 4.06896,79.80407 z"
         id="path284133"
         inkscape:label="muscle_light"
         sodipodi:nodetypes="ccczczc"
         sodipodi:insensitive="true" /><path
         id="path284117"
         style="display:inline;fill:#d07a5a;fill-opacity:1;fill-rule:evenodd;stroke:#d07a5a;stroke-width:0.238125;stroke-linejoin:round;stroke-dasharray:none;stroke-opacity:1"
         inkscape:label="muscle_dark"
         d="m 105.53038,47.252411 c 8.85983,8.597313 15.73437,30.228157 15.22578,62.478189 -0.50859,32.25003 -5.85957,47.23487 -7.61289,53.0277 0,0 4.36816,-23.83592 2.49388,-45.54607 -2.00554,27.64237 -4.8208,55.72339 -6.82535,55.39032 -0.82324,-1.12061 1.49542,-20.04199 2.1001,-43.97099 -2.54548,18.2044 -3.49062,39.58688 -4.98775,44.49602 -1.23461,-2.70374 0.67008,-43.67339 -0.26251,-43.83973 -1.32637,-0.42886 -2.75639,31.63285 -2.75639,31.63285 -1.40017,-2.98355 -1.16449,-10.95902 -3.543933,-42.00213 -0.935618,23.42842 -0.106182,46.47842 -0.656282,51.1901 -1.600154,-1.32612 -4.684957,-36.918 -4.462728,-61.16561 0.222229,-24.247611 1.429633,-26.348094 3.018903,-33.86423 0.539216,6.265817 0.925873,12.618855 2.362621,32.94543 -0.138332,-28.36966 0.138106,-44.43085 1.443819,-48.039951 1.56823,-0.196427 3.08934,6.41677 4.46273,13.781955 0.45459,-11.404523 -0.98443,-23.82309 0,-26.513853 z m 1.05006,-13.12567 c 20.47185,30.67271 16.27582,81.379149 16.27582,81.379149 0,0 -0.63632,29.95749 -14.10771,76.87874 -1.26452,4.65659 -1.38057,7.38806 -1.38057,7.38806 l -7.08787,-0.26252 c 0,0 -0.37797,-2.67767 -1.575076,-7.61288 -6.447371,-33.81169 -7.219119,-77.70396 -7.219119,-77.70396 0,0 -1.70214,-59.155418 15.094525,-80.066589 z"
         sodipodi:nodetypes="cscccccccccsccccccccccccc"
         sodipodi:insensitive="true" /><path
         style="fill:url(#linearGradient284141);fill-rule:evenodd;stroke:none;stroke-width:0.238125;stroke-linejoin:round;stroke-dasharray:none;stroke-opacity:1"
         d="m 98.311265,191.241 10.763045,0.39377 c 0,0 -1.62829,5.69932 -1.47431,8.27714 -2.58399,-0.0209 -4.45858,-0.0131 -7.45115,-0.008 -0.232033,-2.08446 -1.837585,-8.66291 -1.837585,-8.66291 z"
         id="path284136"
         inkscape:label="tendin"
         sodipodi:nodetypes="ccccc"
         sodipodi:insensitive="true" /></g></g></svg>
