<?xml version="1.0" encoding="UTF-8" standalone="no"?>
<!-- Created with Inkscape (http://www.inkscape.org/) -->

<svg
   version="1.1"
   id="svg1"
   width="1920"
   height="1080"
   viewBox="0 0 1920 1080"
   sodipodi:docname="zoomedbody.svg"
   inkscape:version="1.4 (e7c3feb100, 2024-10-09)"
   xml:space="preserve"
   xmlns:inkscape="http://www.inkscape.org/namespaces/inkscape"
   xmlns:sodipodi="http://sodipodi.sourceforge.net/DTD/sodipodi-0.dtd"
   xmlns="http://www.w3.org/2000/svg"
   xmlns:svg="http://www.w3.org/2000/svg"><g
     inkscape:groupmode="layer"
     inkscape:label="Image"
     id="g1"
     transform="matrix(20.425532,0,0,20.425532,-17361.702,-16137.447)"
     style="display:inline;opacity:1"><g
       id="g2"
       style="display:inline;opacity:1"
       clip-path="url(#clipPath20)"><path
         id="water"
         inkscape:label="water"
         style="display:inline;fill:#b4e0f7;fill-opacity:1;stroke:none"
         d="m 910.26963,787.41711 -0.17161,59.5966 -22.4127,0.0778 0.23996,-59.34343 z" /><path
         id="shore_left"
         inkscape:label="shore_left"
         style="display:inline;fill:#fce4e2;fill-opacity:1;stroke:#1839b4;stroke-width:0.832292;stroke-dasharray:none;stroke-opacity:1"
         d="m 872.86351,788.82613 21.18542,-0.18928 c 0,0 -0.61755,2.75772 -0.7015,6.84122 -0.11101,6.76104 1.61959,15.87572 1.43531,20.95016 0.0321,8.21177 -1.54248,12.91151 -1.65306,19.9279 -0.0771,2.61925 -0.13181,4.64495 0.0741,7.40088 l -20.50249,0.21636 z"
         sodipodi:nodetypes="cccccccc" /><path
         id="shore_right"
         inkscape:label="shore_right"
         style="display:inline;fill:#fce4e2;fill-opacity:1;stroke:#1839b4;stroke-width:0.832292;stroke-dasharray:none;stroke-opacity:1"
         d="m 905.11634,789.43443 c 0,0 0.37459,2.99119 0.3898,5.7174 0.0423,5.1333 -1.02902,12.66855 -1.14737,20.61327 -0.11835,8.86428 1.21309,15.017 0.98655,20.65464 0.0169,4.69103 -0.30263,7.46203 -0.30263,7.46203 l 20.27101,-0.37864 v -53.89358 z"
         sodipodi:nodetypes="cccccccc" /><path
         id="body_frame_left"
         inkscape:label="body_frame_left"
         style="display:inline;fill:#fce4e2;fill-opacity:1;stroke:#ffcdcc;stroke-width:1.82;stroke-opacity:1"
         d="m 864.80357,788.16083 c -0.84266,9.70359 -1.00638,16.97736 0.55001,26.62677 1.48286,11.8343 2.71041,18.45904 5.87862,29.94882 14.75465,0.15597 37.63824,0.26531 54.56831,0.36775 1.47388,-8.1049 1.93159,-11.04773 2.83279,-19.2594 1.22062,-13.59079 0.75036,-23.64649 -0.35146,-37.22185 z"
         clip-path="url(#bodyFrameLeftClip)"
         sodipodi:nodetypes="ccccccc" /><path
         id="body_frame_right"
         inkscape:label="body_frame_right"
         style="display:inline;fill:#fce4e2;fill-opacity:1;stroke:#ffcdcc;stroke-width:1.82;stroke-opacity:1"
         d="m 865.50676,787.89037 c -0.84266,9.70359 -1.70957,17.24782 -0.15318,26.89723 1.48286,11.8343 3.08905,18.40495 6.25726,29.89473 14.75465,0.15597 36.6105,0.21122 53.54057,0.31366 1.79843,-7.99672 2.90524,-10.93955 3.48189,-19.15122 1.22062,-13.59079 0.75036,-23.64649 -0.35146,-37.22185 z"
         clip-path="url(#bodyFrameRightClip)"
         sodipodi:nodetypes="ccccccc" /></g></g><sodipodi:namedview
     id="namedview1"
     pagecolor="#ffffff"
     bordercolor="#000000"
     borderopacity="0.25"
     inkscape:showpageshadow="2"
     inkscape:pageopacity="0.0"
     inkscape:pagecheckerboard="0"
     inkscape:deskcolor="#d1d1d1"
     inkscape:zoom="0.64"
     inkscape:cx="1055.4688"
     inkscape:cy="535.9375"
     inkscape:window-width="1920"
     inkscape:window-height="1011"
     inkscape:window-x="0"
     inkscape:window-y="0"
     inkscape:window-maximized="1"
     inkscape:current-layer="g1"
     showgrid="false" /><defs
     id="defs1"><clipPath
       clipPathUnits="userSpaceOnUse"
       id="clipPath20"><rect
         style="fill:none;stroke-width:0.0489583"
         id="rect20"
         width="94"
         height="52.875"
         x="850"
         y="790.0625"
         ry="0" /></clipPath><clipPath
       id="bodyFrameLeftClip"
       clipPathUnits="userSpaceOnUse"><rect
         x="700"
         y="783"
         width="180"
         height="65"
         id="rect1" /></clipPath><clipPath
       id="bodyFrameRightClip"
       clipPathUnits="userSpaceOnUse"><rect
         x="920"
         y="783"
         width="180"
         height="65"
         id="rect2" /></clipPath></defs></svg>
