<?xml version="1.0" encoding="UTF-8" standalone="no" ?>
<!-- Created with Inkscape (http://www.inkscape.org/) -->
<svg
	version="1.1"
	id="svg1"
	width="1355"
	height="775"
	viewBox="0 0 1920 1080"
	sodipodi:docname="fullbody.svg"
	inkscape:version="1.4 (e7c3feb100, 2024-10-09)"
	xmlns:inkscape="http://www.inkscape.org/namespaces/inkscape"
	xmlns:sodipodi="http://sodipodi.sourceforge.net/DTD/sodipodi-0.dtd"
	xmlns="http://www.w3.org/2000/svg"
	xmlns:svg="http://www.w3.org/2000/svg"
>
	<sodipodi:namedview
		id="namedview1"
		pagecolor="#ffffff"
		bordercolor="#000000"
		borderopacity="0.25"
		inkscape:showpageshadow="2"
		inkscape:pageopacity="0.0"
		inkscape:pagecheckerboard="0"
		inkscape:deskcolor="#d1d1d1"
		inkscape:zoom="0.67601476"
		inkscape:cx="676.76037"
		inkscape:cy="505.90611"
		inkscape:window-width="1920"
		inkscape:window-height="1011"
		inkscape:window-x="0"
		inkscape:window-y="0"
		inkscape:window-maximized="1"
		inkscape:current-layer="g6"
	/>
	<defs id="defs1" />
	<g
		id="g6"
		transform="matrix(1.3,0,0,1.3,72.295288,33.730916)"
		inkscape:label="g1"
	>
		<path
			style="fill:#fce4e2;fill-opacity:1;stroke:#ffcdcc;stroke-width:1.4;stroke-dasharray:none;stroke-opacity:1"
			d="m 581.06306,180.66667 c 3.16452,-7.82095 11.8636,-17.72898 19.45113,-22.62036 7.58754,-4.89139 15.26758,-3.49319 21.68948,-4.87653 6.42191,-1.38335 12.14591,-1.139 23.70569,-6.25805 11.55978,-5.11906 12.70002,-7.31163 13.07039,-18.74875 0.37036,-11.43713 -3.16778,-16.4945 -3.46543,-15.99842 0,0 -3.67097,0.80872 -6.0909,-0.72143 -2.41993,-1.53015 -3.60321,-5.65316 -4.51899,-9.26013 -0.91577,-3.606972 -1.2737,-8.27643 0.64104,-10.345455 1.91473,-2.069025 4.16144,-0.86318 4.16144,-0.86318 0,0 -1.46228,-15.722236 -1.35611,-23.61893 0.10617,-7.896694 3.32642,-20.115135 12.05911,-25.85093 8.73269,-5.735795 25.71691,-7.043813 35.11741,-4.093753 9.4005,2.95006 14.19848,7.492874 18.45255,13.421575 8.28014,11.539618 3.44003,35.474951 3.44003,35.474951 0,0 4.07863,-2.059703 6.46749,1.29477 2.38886,3.354474 -0.83696,13.937512 -2.44779,17.946912 -1.61084,4.0094 -2.575,5.80556 -4.59305,6.31941 -2.01805,0.51384 -4.44493,-0.49929 -4.44493,-0.49929 0,0 -2.78235,6.36606 -3.80404,11.48661 -1.02169,5.12055 -1.05557,11.6115 -0.7213,13.58894 0.33426,1.97744 3.65221,4.24491 5.7482,5.99221 2.096,1.74729 17.57062,8.31204 23.74479,9.55981 6.17417,1.24777 19.6537,1.66832 30.46406,7.20268 10.81036,5.53436 18.66695,25.31513 21.1098,36.98551 2.44285,11.67038 -2.23494,13.67705 0.51198,30.73382 2.74692,17.05677 10.05751,35.3866 11.26363,50.54248 1.20612,15.15588 11.99616,23.2495 14.43286,45.16667 2.43669,21.91717 4.12572,43.08122 10.05561,53.35417 5.92989,10.27295 16.02044,15.86092 19.74732,22.25647 3.72688,6.39555 5.87427,10.19826 3.15653,12.2072 -2.71775,2.00894 -3.29656,-1.45079 -6.53519,-4.01335 -3.23864,-2.56255 -5.03953,-5.65652 -7.82362,-5.27295 0.23705,4.05208 -0.57334,11.24008 -1.00493,19.46461 -0.43158,8.22452 0.15874,17.47773 -2.33672,19.75329 -1.41208,1.28764 -3.32587,-1.63815 -4.50254,-1.04234 -1.7265,0.87421 -2.87931,4.94762 -4.79236,5.02463 -1.90079,0.0765 -2.50692,-2.38723 -4.45553,-3.35487 -1.45482,-0.35303 -3.62753,1.60824 -4.34683,1.2777 -0.66386,-0.30506 -2.44023,-1.27973 -2.50312,-2.96116 -0.0656,-1.75501 -1.24756,-6.13097 -1.98294,-6.82219 -1.18152,-1.11053 -3.15124,2.16282 -5.10093,-0.55575 -1.9497,-2.71856 -2.31305,-12.18895 -2.69117,-18.29618 -0.36151,-5.83878 -2.11757,-10.33108 -1.59073,-16.24641 1.0779,-12.10263 3.12785,-11.15464 2.63818,-17.0097 -0.48967,-5.85505 -22.13738,-44.43024 -28.01522,-58.3365 -5.87784,-13.90626 -3.09163,-26.77028 -6.73829,-40.42553 -3.64666,-13.65525 -5.58031,-27.88666 -11.78196,-44.1681 -1.23837,21.48268 -5.93439,35.51658 -9.54998,51.11583 -3.21765,13.88236 2.1901,37.0723 3.89166,55.95041 2.15101,8.9745 5.65791,19.96501 6.73729,30.23417 2.8872,27.4686 7.82996,58.05083 6.67694,85.94974 -1.15303,27.8989 -5.84176,39.70387 -4.2355,60.53675 1.60626,20.83288 6.12369,47.91366 6.75098,66.35051 0.6273,18.43684 -2.23753,26.34182 -6.31939,41.86204 -4.08186,15.52022 -9.00268,34.49174 -7.67552,48.90288 1.32716,14.41114 4.96181,24.13977 8.96394,33.53279 4.00213,9.39302 6.49061,11.56311 3.15016,16.5781 -0.37513,0.56319 -1.58347,0.69576 -2.73986,1.55938 -1.96188,1.46518 -2.44938,3.05812 -3.34292,3.7453 -0.33363,0.25658 -1.60791,0.0201 -2.62353,0.94219 -1.95203,1.77232 -4.18182,5.15269 -5.59011,5.80067 -3.20529,1.47483 -3.18075,-1.93915 -4.73582,-0.62946 -3.72044,3.13337 -5.362,3.59862 -9.03163,2.30605 -3.66963,-1.29257 -9.98416,-16.24466 -10.191,-26.06673 -0.20684,-9.82207 -1.2921,-7.48874 -0.79548,-12.99633 0.49662,-5.50759 0,-10.37613 0,-19.53154 0,-9.15541 1.80265,-21.82201 0,-35.4009 -1.80265,-13.57889 -9.13365,-30.88499 -9.18608,-46.67722 -0.0524,-15.79223 4.0571,-28.93613 1.20167,-47.46637 -2.85544,-18.53024 -12.15884,-68.26739 -16.80025,-94.78463 -4.6414,-26.51724 -7.74675,-37.56817 -10.68394,-37.69424 -2.93718,-0.12607 -4.52535,1.65231 -4.52535,1.65231 -0.0167,0.0334 -10.7717,48.40606 -14.99348,71.80673 -4.22178,23.40066 -11.63387,59.70106 -12.06546,64.77224 -0.43159,5.07119 5.39564,38.43649 0.27079,59.8576 -5.12485,21.42111 -5.81547,27.7754 -7.60782,41.52357 -0.53577,4.10961 1.60449,10.22503 1.83398,14.02603 0.53823,8.91474 -1.01664,18.91091 -1.25429,26.04831 -0.33898,10.18058 -0.0606,19.15956 -1.29477,24.41442 -1.23418,5.25486 -7.43818,17.18878 -11.57888,17.30588 -4.46054,0.12615 -3.6316,-1.68484 -6.6104,-1.96603 -1.95075,-0.18414 -2.9828,0.79952 -4.8073,0.23524 -1.863,-0.57618 -2.68546,-3.72016 -3.15346,-3.98382 -1.44581,-0.81455 -2.7258,-0.27102 -2.98153,-0.4629 -1.29041,-0.96823 -0.735,-2.07981 -0.97161,-2.24605 -0.99924,-0.70205 -2.38975,-0.42977 -3.0208,-0.51791 -2.71945,-0.37983 -0.0547,-2.89613 -1.20205,-4.54703 -1.14736,-1.65089 -5.09587,0.18973 -5.22733,-2.77319 -0.13147,-2.96293 4.08978,-14.13001 7.74692,-22.58557 3.65714,-8.45557 8.54315,-17.18514 7.38568,-30.94326 -1.15748,-13.75812 -3.80404,-26.2268 -7.11488,-39.20482 -3.31085,-12.97801 -5.55737,-19.37522 -7.66917,-36.83741 -2.11179,-17.46219 4.56491,-47.90628 6.239,-64.05082 1.67408,-16.14453 -0.98547,-18.44727 -2.01621,-32.60192 -1.03074,-14.15464 -6.86715,-28.33567 -5.8751,-56.1595 0.99206,-27.82383 5.26168,-69.23705 10.40679,-87.44759 5.14512,-18.21054 2.62675,-16.16897 2.799,-26.44332 0.17224,-10.27436 1.95933,-19.70043 1.14667,-33.74859 -0.81267,-14.04817 -8.23388,-58.74528 -11.63388,-58.87174 -3.4,-0.12646 -5.42348,47.17245 -12.77419,52.47194 0.8495,45.65315 -27.99988,64.93396 -31.3812,86.96736 -1.76759,11.51798 4.04243,12.55458 -0.37362,30.39004 -2.00416,8.09434 -0.0517,22.84727 -3.87457,24.62914 -1.20402,0.56121 -1.50828,-0.24909 -3.37458,-0.32051 -1.86629,-0.0714 -0.5828,6.60489 -3.80165,8.71111 -1.58024,1.03401 -4.41315,0.35875 -6.16487,0.8919 -2.31121,0.70343 -2.74133,2.21293 -5.37737,2.46245 -3.04255,0.288 -1.39483,-3.02317 -2.91456,-3.97106 -1.51972,-0.94789 -3.14122,0.61038 -5.1529,-0.86806 -2.01167,-1.47844 -1.85156,-5.63002 -2.29373,-16.20855 -0.20008,-4.78681 -0.68417,-9.01528 -0.37733,-12.64504 0.37125,-4.39178 1.51099,-7.8717 0.67167,-9.94542 -1.53302,-3.78764 -9.76459,9.65499 -12.2749,10.77069 -2.51031,1.1157 -4.77234,0.32188 -4.81519,-3.44637 -0.0429,-3.76825 9.54917,-14.04686 13.42793,-19.53153 3.87876,-5.48467 12.64538,-7.73608 14.72905,-17.74383 2.08367,-10.00775 4.87019,-32.66326 4.87019,-37.54614 0,-4.88289 3.52485,-18.51838 6.97313,-29.08151 3.44828,-10.56312 7.56282,-12.48418 9.61132,-29.2296 2.04849,-16.74542 8.4872,-37.57485 10.2037,-49.9755 1.7165,-12.40065 -0.36771,-16.28982 0.42524,-23.62528 0.79294,-7.33546 1.29312,-12.49971 4.45764,-20.32066 z"
			id="path2"
			inkscape:label="body"
		/>
		<path
			style="fill:none;stroke:#296cda;stroke-width:7.62986091;stroke-dasharray:none;stroke-opacity:1"
			d="m 673.92771,245.79048 c 0,0 6.69162,32.89957 9.06339,46.39592 2.37177,13.49635 4.80367,24.65384 5.39487,34.52719 0.5912,9.87335 -0.31212,19.36069 -0.86318,24.38483 -0.55106,5.02414 0.76569,1.72363 -1.07897,5.82647 -1.84466,4.10284 -7.44699,10.9083 -12.9477,16.61621 -5.50071,5.70791 -15.54311,11.29006 -20.28473,17.04781 -4.74162,5.75775 -5.9178,6.84004 -9.06338,17.26359 -3.14559,10.42355 -5.34798,56.81122 -6.68965,80.70732 -1.34167,23.8961 -1.29974,37.76351 -1.72636,61.28578 -0.42662,23.52227 -0.39563,53.2294 -0.64739,79.84414 -0.25176,26.61474 -0.86318,79.84414 -0.86318,79.84414 v 0"
			id="path4"
			inkscape:label="venen_re"
		/>
		<path
			style="fill:none;stroke:#296cda;stroke-width:7.62986091;stroke-dasharray:none;stroke-opacity:1"
			d="m 686.65961,355.84591 c 0,0 6.64882,8.30264 12.51611,14.45827 5.86729,6.15563 18.87636,17.52963 23.09006,22.01108 4.2137,4.48145 5.00146,7.58494 6.68965,15.32145 1.68819,7.73651 7.026,77.33941 8.416,104.22897 1.39,26.88956 0.84577,24.13344 1.29477,56.96987 0.449,32.83643 0.64738,140.05094 0.64738,140.05094"
			id="path5"
			inkscape:label="venen_li"
		/>
		<g id="Heart">
			<path
				style="fill:#fac884;fill-opacity:1;stroke:#dca27e;stroke-width:3.1;stroke-dasharray:none;stroke-opacity:1"
				d="m 676.94884,213.63703 c 0,0 2.47443,-12.50186 10.57395,-12.08452 8.09952,0.41734 8.41601,13.37929 8.41601,13.37929 l -0.43159,0.21579"
				id="path6"
				inkscape:label="herzknopf"
			/>
			<path
				style="fill:#fa8484;fill-opacity:1;stroke:#ed9186;stroke-width:0.6;stroke-dasharray:none;stroke-opacity:1"
				d="m 666.26698,243.09304 c 0,0 -10.78975,-14.13458 -7.55282,-22.33479 3.23692,-8.2002 12.99861,-8.3559 16.72411,-8.0923 3.7255,0.26361 10.45676,0.70765 14.24247,1.83426 4.54099,-2.11031 9.3579,-3.28332 12.30031,-2.48164 2.94242,0.80167 3.41174,3.42191 3.02114,6.58174 -0.3906,3.15983 -1.29478,6.47385 -1.29478,6.47385 z"
				id="path1"
				inkscape:label="vorhof"
			/>
			<path
				style="fill:#f27373;fill-opacity:1;stroke:#ff4800;stroke-width:0.4;stroke-dasharray:none;stroke-opacity:1"
				d="m 671.33817,221.40565 c 2.87842,-2.1378 7.38936,-2.23725 11.22134,-2.80534 3.83198,-0.56809 6.14123,-1.49779 9.92657,-0.64739 3.78534,0.8504 8.19484,1.55614 11.65292,6.47385 3.45808,4.91771 4.94897,16.34142 3.66852,22.44268 -1.28045,6.10126 -2.95048,10.00751 -7.98442,12.30032 -5.03394,2.29281 -12.20334,0.39592 -18.34257,-2.58954 -6.13923,-2.98546 -13.96138,-10.19152 -16.18462,-15.53724 -2.22324,-5.34572 -0.69632,-9.00429 0.21579,-12.30032 0.91211,-3.29603 2.94805,-5.19922 5.82647,-7.33702 z"
				id="path3"
				inkscape:label="kammern"
			/>
		</g>
	</g>
</svg>
