<?xml version="1.0" encoding="UTF-8" standalone="no" ?>
<!-- Created with Inkscape (http://www.inkscape.org/) -->
<svg
	version="1.1"
	id="svg1"
	width="1355"
	height="775"
	viewBox="0 0 1920 1080"
	sodipodi:docname="zoombody.svg"
	inkscape:version="1.4 (e7c3feb100, 2024-10-09)"
	xmlns:inkscape="http://www.inkscape.org/namespaces/inkscape"
	xmlns:sodipodi="http://sodipodi.sourceforge.net/DTD/sodipodi-0.dtd"
	xmlns="http://www.w3.org/2000/svg"
	xmlns:svg="http://www.w3.org/2000/svg"
>
	<defs id="defs1" />
	<sodipodi:namedview
		id="namedview1"
		pagecolor="#ffffff"
		bordercolor="#000000"
		borderopacity="0.25"
		inkscape:showpageshadow="2"
		inkscape:pageopacity="0.0"
		inkscape:pagecheckerboard="0"
		inkscape:deskcolor="#d1d1d1"
		inkscape:zoom="16"
		inkscape:cx="623.96876"
		inkscape:cy="586.18751"
		inkscape:window-width="1920"
		inkscape:window-height="1011"
		inkscape:window-x="0"
		inkscape:window-y="0"
		inkscape:window-maximized="1"
		inkscape:current-layer="g1"
		showgrid="false"
	/>
	<g inkscape:groupmode="layer" inkscape:label="Image" id="g1">
		<path
			style="fill:#fce4e2;fill-opacity:1;stroke:#ffcdcc;stroke-width:1.82;stroke-dasharray:none;stroke-opacity:1"
			d="m 827.67727,268.59759 c 4.11387,-10.16724 15.42268,-23.04768 25.28647,-29.40647 9.8638,-6.35881 19.84785,-4.54115 28.19632,-6.33949 8.34848,-1.79835 15.78968,-1.4807 30.8174,-8.13546 15.02771,-6.65478 16.51002,-9.50512 16.9915,-24.37338 0.48147,-14.86827 -4.11811,-21.44285 -4.50506,-20.79795 0,0 -4.77226,1.05134 -7.91817,-0.93785 -3.14591,-1.9892 -4.68417,-7.34911 -5.87468,-12.03817 -1.1905,-4.68907 -1.65581,-10.75936 0.83335,-13.4491 2.48915,-2.68973 5.40987,-1.12213 5.40987,-1.12213 0,0 -1.90096,-20.43891 -1.76294,-30.70461 0.13802,-10.2657 4.32434,-26.149674 15.67684,-33.606208 11.3525,-7.456533 33.43198,-9.156956 45.65263,-5.321878 12.22065,3.835078 18.45803,9.740736 23.9883,17.448047 10.7642,15.001499 4.4721,46.117439 4.4721,46.117439 0,0 5.3022,-2.67762 8.4077,1.6832 3.1055,4.36081 -1.0881,18.11876 -3.1821,23.33098 -2.0941,5.21222 -3.3475,7.54723 -5.971,8.21524 -2.6235,0.66799 -5.77841,-0.64908 -5.77841,-0.64908 0,0 -3.61705,8.27588 -4.94525,14.93259 -1.3282,6.65672 -1.37224,15.09495 -0.93769,17.66562 0.43454,2.57068 4.74787,5.51839 7.47265,7.78988 2.7248,2.27147 22.8418,10.80565 30.8682,12.42775 8.0265,1.6221 25.5498,2.16882 39.6033,9.36348 14.0535,7.19467 24.2671,32.90967 27.4428,48.08117 3.1757,15.17149 -2.9055,17.78016 0.6655,39.95396 3.571,22.1738 13.0748,46.00258 14.6427,65.70523 1.568,19.70264 15.5951,30.22435 18.7628,58.71667 3.1677,28.49232 5.3634,56.00558 13.0723,69.36042 7.7088,13.35484 20.8265,20.6192 25.6715,28.93341 4.8449,8.31422 7.6365,13.25774 4.1035,15.86936 -3.5331,2.61162 -4.2856,-1.88603 -8.4958,-5.21735 -4.2102,-3.33132 -6.5514,-7.35348 -10.1707,-6.85484 0.3082,5.2677 -0.7453,14.61211 -1.3064,25.30399 -0.5611,10.69188 0.2064,22.72105 -3.0377,25.67928 -1.8357,1.67393 -4.3237,-2.12959 -5.8533,-1.35504 -2.2445,1.13647 -3.7431,6.4319 -6.2301,6.53202 -2.471,0.0994 -3.259,-3.1034 -5.7922,-4.36133 -1.8913,-0.45894 -4.7158,2.09071 -5.6509,1.66101 -0.863,-0.39658 -3.1723,-1.66365 -3.254,-3.84951 -0.085,-2.28151 -1.6219,-7.97026 -2.5778,-8.86885 -1.536,-1.44369 -4.0967,2.81167 -6.6313,-0.72247 -2.5346,-3.53413 -3.0069,-15.84564 -3.4985,-23.78504 -0.4699,-7.59041 -2.7528,-13.4304 -2.0679,-21.12033 1.4012,-15.73342 4.0662,-14.50103 3.4296,-22.11261 -0.6366,-7.61157 -28.7786,-57.75931 -36.4198,-75.83745 -7.6412,-18.07814 -4.0191,-34.80136 -8.7598,-52.55319 -4.7406,-17.75182 -7.2544,-36.25266 -15.3165,-57.41853 -1.6099,27.92748 -7.7147,46.17155 -12.415,66.45058 -4.1829,18.04707 2.8472,48.19399 5.0592,72.73553 2.7963,11.66685 7.3553,25.95452 8.7585,39.30442 3.7533,35.70918 10.1789,75.46608 8.68,111.73467 -1.499,36.26857 -7.5943,51.61503 -5.5062,78.69777 2.0882,27.08275 7.9608,62.28776 8.7763,86.25566 0.8155,23.9679 -2.9088,34.24437 -8.2152,54.42066 -5.3064,20.17628 -11.7035,44.83926 -9.9782,63.57374 1.7253,18.73448 6.4504,31.3817 11.6531,43.59263 5.2028,12.21092 8.4378,15.03204 4.0952,21.55153 -0.4876,0.73214 -2.0585,0.90448 -3.5618,2.02719 -2.5504,1.90473 -3.1842,3.97556 -4.3458,4.86889 -0.4337,0.33355 -2.0902,0.0261 -3.4106,1.22485 -2.5376,2.30401 -5.4363,6.69849 -7.2671,7.54087 -4.1669,1.91728 -4.135,-2.5209 -6.1566,-0.8183 -4.8365,4.07338 -6.9706,4.67819 -11.7411,2.99787 -4.7705,-1.68035 -12.9794,-21.11806 -13.2483,-33.88675 -0.2689,-12.76869 -1.6797,-9.73537 -1.0341,-16.89523 0.6456,-7.15987 0,-13.48897 0,-25.391 0,-11.90204 2.3434,-28.36862 0,-46.02117 -2.3435,-17.65256 -11.8738,-40.15049 -11.9419,-60.68039 -0.068,-20.5299 5.2742,-37.61697 1.5622,-61.70628 -3.71211,-24.08931 -15.80653,-88.74761 -21.84036,-123.22002 -6.03382,-34.47241 -10.07078,-48.83862 -13.88913,-49.00251 -3.81833,-0.16389 -5.88295,2.148 -5.88295,2.148 -0.0217,0.0434 -14.00321,62.92788 -19.49152,93.34875 -5.48832,30.42086 -15.12403,77.61138 -15.6851,84.20391 -0.56107,6.59255 7.01433,49.96744 0.35202,77.81488 -6.6623,27.84745 -7.56011,36.10802 -9.89016,53.98064 -0.6965,5.3425 2.08584,13.29254 2.38417,18.23384 0.6997,11.58916 -1.32163,24.58418 -1.63057,33.86281 -0.44068,13.23475 -0.0788,24.90742 -1.6832,31.73874 -1.60444,6.83132 -9.66964,22.34541 -15.05255,22.49764 -5.7987,0.164 -4.72108,-2.19029 -8.59352,-2.55583 -2.53597,-0.23939 -3.87764,1.03937 -6.24949,0.30581 -2.4219,-0.74904 -3.4911,-4.83621 -4.0995,-5.17897 -1.87955,-1.05891 -3.54354,-0.35232 -3.87599,-0.60177 -1.67753,-1.2587 -0.9555,-2.70375 -1.26309,-2.91986 -1.29901,-0.91267 -3.10667,-0.5587 -3.92704,-0.67329 -3.53528,-0.49378 -0.0711,-3.76497 -1.56266,-5.91114 -1.49157,-2.14615 -6.62464,0.24665 -6.79553,-3.60514 -0.17091,-3.85181 5.31671,-18.36902 10.07099,-29.36124 4.75428,-10.99224 11.1061,-22.34069 9.60139,-40.22624 -1.50473,-17.88556 -4.94526,-34.09484 -9.24935,-50.96627 -4.3041,-16.87141 -7.22458,-25.18778 -9.96992,-47.88863 -2.74533,-22.70085 5.93438,-62.27816 8.1107,-83.26607 2.17631,-20.98789 -1.28111,-23.98145 -2.62107,-42.38249 -1.33996,-18.40103 -8.9273,-36.83637 -7.63763,-73.00735 1.28968,-36.17098 6.84018,-90.00817 13.52883,-113.68187 6.68865,-23.6737 3.41477,-21.01966 3.6387,-34.37632 0.22391,-13.35666 2.54713,-25.61055 1.49067,-43.87316 -1.05647,-18.26262 -10.70405,-76.36887 -15.12405,-76.53326 -4.42,-0.1644 -7.05052,61.32418 -16.60644,68.21352 1.10435,59.34909 -36.39985,84.41415 -40.79556,113.05757 -2.29787,14.97337 5.25515,16.32095 -0.48571,39.50705 -2.60541,10.52264 -0.0672,29.70145 -5.03694,32.01788 -1.56523,0.72957 -1.96076,-0.32382 -4.38695,-0.41666 -2.42618,-0.0928 -0.75765,8.58635 -4.94215,11.32444 -2.05431,1.34421 -5.73709,0.46637 -8.01433,1.15947 -3.00457,0.91446 -3.56373,2.87681 -6.99058,3.20118 -3.95532,0.3744 -1.81328,-3.93012 -3.78893,-5.16237 -1.97564,-1.23226 -4.08359,0.79349 -6.69877,-1.12848 -2.61517,-1.92197 -2.40703,-7.31903 -2.98185,-21.07112 -0.2601,-6.22285 -0.88942,-11.71986 -0.49053,-16.43855 0.48263,-5.70931 1.96429,-10.23321 0.87317,-12.92904 -1.99292,-4.92394 -12.69396,12.55148 -15.95737,14.00189 -3.2634,1.45041 -6.20404,0.41845 -6.25974,-4.48028 -0.0558,-4.89872 12.41392,-18.26092 17.4563,-25.39099 5.04239,-7.13007 16.439,-10.0569 19.14777,-23.06698 2.70877,-13.01007 6.33125,-42.46223 6.33125,-48.80998 0,-6.34776 4.5823,-24.07389 9.06507,-37.80596 4.48276,-13.73206 9.83166,-16.22944 12.49471,-37.99848 2.66304,-21.76905 11.03336,-48.84731 13.26481,-64.96815 2.23145,-16.12085 -0.47802,-21.17677 0.55281,-30.71287 1.03083,-9.53609 1.68106,-16.24962 5.79494,-26.41685 z"
			id="path2"
			sodipodi:nodetypes="zzzzzczzzczzzzczzzczzzzzzzzzzzzzczssscssszsszzzcscszzzzzzsssssszzzzzzzzzczzzssszssssssszzzzzzzzzzzzzcssszssszzssszzzzzzzzzz"
			inkscape:label="body"
		/>
		<path
			style="fill:#b4e0f7;fill-opacity:1;stroke:none;stroke-width:0.924686;stroke-dasharray:none;stroke-opacity:1"
			d="m 918.27737,538.41601 c 9.36387,-9.71514 21.83144,-17.59471 30.70439,-25.89487 8.87294,-8.30016 14.25492,-20.64964 14.25492,-20.64964 l 6.94784,9.72739 c 0,0 -13.38733,21.56272 -27.40487,30.14985 -9.69173,5.93714 -19.50023,15.13414 -25.6074,28.39271 -5.39558,11.71369 -10.49777,118.64706 -10.98809,139.39981 -0.60127,25.4486 -0.69958,76.02624 -0.67879,97.65529 0.006,7.56733 -1.11096,12.00383 -1.13269,19.71119 -0.0191,6.74263 0.98018,13.97055 0.85552,21.11082 -0.67438,38.63065 -1.76704,117.04079 -1.76704,117.04079 l -10.73311,0.32554 c 0,0 0.60748,-44.63724 1.15968,-91.07231 0.0722,-6.06996 -0.98516,-22.34612 -0.86502,-27.9609 0.17194,-8.03522 1.23976,-13.85565 1.40781,-20.23995 0.16233,-6.16759 -1.12542,-15.04508 -0.99774,-21.12879 0.80332,-38.27801 1.24221,-95.24488 3.63631,-130.42481 3.73028,-54.81429 6.29643,-83.48403 6.93907,-92.77752 0.64265,-9.29348 10.15972,-29.10095 14.26921,-33.3646 z"
			id="path8"
			sodipodi:nodetypes="zzccssssssccssssszz"
			inkscape:label="venelight"
		/>
		<path
			style="fill:none;fill-opacity:1;stroke:#1839b4;stroke-width:0.850185;stroke-dasharray:none;stroke-opacity:1"
			d="m 892.57964,955.95534 c 0,0 0.91727,-49.85959 1.29056,-100.54466 0.0206,-2.79567 -0.83304,-12.5995 -0.81039,-15.34685 0.10208,-12.37971 1.31091,-10.76573 1.71921,-22.90135 0.20581,-6.11711 -1.50941,-13.3802 -1.40145,-22.39715 0.0305,-2.54799 0.73048,-6.14949 0.79465,-8.97528 0.26595,-11.71064 0.10403,-24.0877 0.24524,-31.78066 0.78752,-42.90148 0.90119,-60.35543 2.44271,-82.66313 0.58871,-8.51932 1.43682,-30.75217 2.02883,-38.88389 2.24144,-30.78806 5.57215,-62.88541 5.57215,-62.88541 0,0 1.00221,-14.87719 10.85622,-27.59442 7.98831,-10.30943 19.33782,-16.27764 30.76634,-26.88052 10.14732,-9.41424 16.08005,-20.9191 16.08005,-20.9191"
			id="path6"
			sodipodi:nodetypes="csssssssscssc"
			inkscape:label="wallleft"
		/>
		<path
			style="fill:none;fill-opacity:1;stroke:#1839b4;stroke-width:0.850185;stroke-dasharray:none;stroke-opacity:1"
			d="m 967.13437,505.86018 c 0,0 -7.95468,11.90394 -20.84721,22.78433 -3.644,3.07528 -11.5851,7.55763 -17.12094,13.1675 -5.94411,6.02361 -10.1785,13.87356 -10.66465,14.9922 -6.4232,14.77964 -6.8508,43.1737 -7.95402,58.0493 -1.63343,22.02487 -3.26002,49.68009 -4.18342,76.92593 -0.56568,16.69078 -0.59083,33.1726 -1.00457,48.27482 -0.40154,14.65697 -0.38332,29.40419 -0.47776,44.82212 -0.0131,2.13197 0.65293,8.59703 0.64016,10.56619 -0.0576,8.89038 -1.08959,11.88016 -1.11675,20.56915 -0.0413,13.21891 1.07181,9.99436 0.94518,22.62558 -0.0437,4.36138 -1.01491,12.04537 -1.08108,17.4813 -0.48114,39.52352 -1.24903,99.9253 -1.24903,99.9253"
			id="path7"
			sodipodi:nodetypes="csssssssssssc"
			inkscape:label="wallright"
		/>
	</g>
</svg>
